# xmcd CD database file
#
# Track frame offsets:
#	150
#	15658
#	29936
#	39957
#	52980
#	67771
#	76366
#	88914
#	105479
#
# Disc length: 1594 seconds
#
# Revision: 3
# Processed by: cddbd v1.5.2PL0 Copyright (c) Steve Scherf et al.
# Submitted via: CDex 1.70beta1
#
DISCID=68063809
DTITLE=B. B. King - Precious Lord
DYEAR=1900
DGENRE=
TTITLE0=Precious Lord
TTITLE1=Save a seat for me
TTITLE2=Swing low sweet chariot - Rock me Lord
TTITLE3=Jesus gave me water
TTITLE4=I never had a man
TTITLE5=I'm a soldier in the army
TTITLE6=I'm willing to run all the way
TTITLE7=I'm working on the building
TTITLE8=The servants prayer
EXTD=
EXTT0=
EXTT1=
EXTT2=
EXTT3=
EXTT4=
EXTT5=
EXTT6=
EXTT7=
EXTT8=
PLAYORDER=
